<svg xmlns="http://www.w3.org/2000/svg" width="1122.52" height="793.701" viewBox="0 0 841.89 595.276"><path d="M0 0h842v596H0z" fill="#fff"/><path stroke-width=".42" stroke-linecap="round" stroke-linejoin="round" fill="none" stroke="#000" d="M501.734 470.477h306.062v90.688H501.734z"/><path stroke-width=".42" stroke-linecap="round" stroke-linejoin="round" fill="none" stroke="#000" d="M28.453 28.363h785.012v538.473H28.453z"/><path stroke-width=".42" stroke-linecap="round" stroke-linejoin="round" fill="none" stroke="#000" d="M34.125 34.035h773.672v527.129H34.125zM170.145 34.035v-5.672M311.852 34.035v-5.672M453.539 34.035v-5.672M595.246 34.035v-5.672M736.949 34.035v-5.672M102.391 32.879h-2.102M101.34 32.879v-3.688l-.36.524-.343.359-.348.18M241.98 29.551l.18-.18.344-.18h.887l.343.18.18.18.164.344v.359l-.164.527-2.113 2.098h2.277M383.504 29.191h2.281l-1.23 1.411h.523l.363.179.164.164.18.36v.871l-.18.359-.164.164-.363.18h-1.047l-.347-.18-.18-.164M527.129 30.422v2.457M526.262 29.023l-.887 2.625h2.281M669 29.191h-1.754l-.168 1.754.168-.164.359-.179h.872l.359.179.164.164.18.36v.871l-.18.359-.164.164-.359.18h-.872l-.359-.18-.168-.164M810.523 29.191h-.703l-.343.18-.18.18-.348.523-.179.707v1.395l.179.359.18.164.348.18h.703l.343-.18.18-.164.184-.359v-.871l-.184-.36-.18-.164-.343-.179h-.703l-.348.179-.18.164-.179.36M170.145 561.164v5.672M311.852 561.164v5.672M453.539 561.164v5.672M595.246 561.164v5.672M736.949 561.164v5.672M102.391 565.68h-2.102M101.34 565.68v-3.676l-.36.527-.343.344-.348.18M241.98 562.352l.18-.18.344-.168h.887l.343.168.18.18.164.359v.344l-.164.523-2.113 2.102h2.277M383.504 562.004h2.281l-1.23 1.394h.523l.363.18.164.184.18.343v.883l-.18.348-.164.18-.363.164h-1.047l-.347-.164-.18-.18M527.129 563.234v2.446M526.262 561.824l-.887 2.625h2.281M669 562.004h-1.754l-.168 1.758.168-.184.359-.18h.872l.359.18.164.184.18.343v.883l-.18.348-.164.18-.359.164h-.872l-.359-.164-.168-.18M810.523 562.004h-.703l-.343.168-.18.18-.348.523-.179.703v1.41l.179.348.18.18.348.164h.703l.343-.164.18-.18.184-.348v-.883l-.184-.343-.18-.184-.343-.18h-.703l-.348.18-.18.184-.179.343M28.453 170.055h5.672M28.453 311.762h5.672M28.453 453.465h5.672M30.406 99.84h1.754M30.059 100.891l1.23-3.676 1.231 3.676M31.547 240.66l.523.18.18.18.18.343v.528l-.18.343-.18.18-.343.18h-1.411v-3.688h1.231l.359.18.164.18.18.343v.344l-.18.363-.164.18-.359.164h-1.231M32.43 383.941l-.18.18-.523.164h-.348l-.524-.164-.359-.359-.18-.348-.168-.703v-.527l.168-.704.18-.343.359-.364.524-.164h.348l.523.164.18.18M30.316 525.988v-3.687h.883l.528.179.343.344.18.36.18.707v.523l-.18.691-.18.36-.343.344-.528.179h-.883M813.465 170.055h-5.668M813.465 311.762h-5.668M813.465 453.465h-5.668M809.762 99.84h1.754M809.398 100.891l1.231-3.676 1.23 3.676M810.898 240.66l.528.18.179.18.165.343v.528l-.165.343-.179.18-.36.18h-1.394v-3.688h1.226l.348.18.18.18.179.343v.344l-.179.363-.18.18-.348.164h-1.226M811.77 383.941l-.165.18-.539.164h-.347l-.524-.164-.343-.359-.18-.348-.184-.703v-.527l.184-.704.18-.343.343-.364.524-.164h.347l.539.164.165.18M809.672 525.988v-3.687h.867l.527.179.36.344.179.36.165.707v.523l-.165.691-.179.36-.36.344-.527.179h-.867"/><path stroke-width=".42" stroke-linecap="round" stroke-linejoin="round" fill="none" stroke="#000" d="M568.199 549.227v-4.247h1.02l.601.196.407.402.207.406.195.813v.613l-.195.809-.207.406-.407.406-.601.196h-1.02M574.273 549.227v-2.223l-.195-.402-.402-.211h-.813l-.402.211"/><path stroke-width=".42" stroke-linecap="round" stroke-linejoin="round" fill="none" stroke="#000" d="m574.273 549.031-.402.196h-1.008l-.402-.196-.211-.406v-.406l.211-.403.402-.211h1.008l.402-.195M575.699 546.391h1.621M576.301 544.98v3.645l.211.406.402.196h.406M580.352 549.031l-.407.196h-.808l-.407-.196-.21-.406v-1.621l.21-.402.407-.211h.808l.407.211.195.402v.406l-2.027.406M582.375 548.82l.195.211-.195.196-.211-.196.211-.211v.407M582.375 546.602l.195.195-.195.207-.211-.207.211-.195v.402M501.734 551.25h306.063M505.859 557.16v-4.246M508.289 557.16l-1.828-2.43M508.289 552.914l-2.43 2.43M510.105 557.16v-2.836M510.105 552.914l-.195.195.195.211.211-.211-.211-.195v.406M514.559 556.754l-.196.211-.613.195h-.406l-.598-.195-.406-.406-.211-.403-.195-.812v-.614l.195-.808.211-.406.406-.407.598-.195h.406l.613.195.196.211M518.203 557.16v-2.219l-.207-.406-.406-.211h-.793l-.406.211"/><path stroke-width=".42" stroke-linecap="round" stroke-linejoin="round" fill="none" stroke="#000" d="m518.203 556.965-.402.195h-1.004l-.406-.195-.211-.406v-.403l.211-.406.406-.211h1.004l.402-.195M522.047 557.16v-4.246M522.047 556.965l-.406.195h-.813l-.402-.195-.196-.211-.21-.402v-1.215l.21-.407.196-.195.402-.211h.813l.406.211M527.309 554.941h1.425M529.336 557.16h-2.027v-4.246h2.027M531.164 556.754l.195.211-.195.195-.211-.195.211-.211v.406M533.191 557.16v-4.246h1.004l.614.195.406.407.195.406.211.808v.614l-.211.812-.195.403-.406.406-.614.195h-1.004M537.434 556.754l.195.211-.195.195-.207-.195.207-.211v.406M539.25 555.945h2.023M538.844 557.16l1.426-4.246 1.41 4.246M543.105 556.754l.196.211-.196.195-.21-.195.21-.211v.406M548.969 554.73l-.403-.195-.195-.211-.211-.402v-.195l.211-.407.195-.211.403-.195h.812l.403.195.211.211.195.407v.195l-.195.402-.211.211-.403.195h-.812l-.403.211-.195.196-.211.402v.813l.211.402.195.211.403.195h.812l.403-.195.211-.211.195-.402v-.813l-.195-.402-.211-.196-.403-.211M552.422 556.754l.191.211-.191.195-.211-.195.211-.211v.406M555.254 552.914h.406l.406.195.196.211.207.407.195.808v1.004l-.195.813-.207.402-.196.211-.406.195h-.406l-.402-.195-.211-.211-.196-.402-.211-.813v-1.004l.211-.808.196-.407.211-.211.402-.195M558.48 556.754l.211.211-.211.195-.195-.195.195-.211v.406M562.531 552.914h-2.027l-.195 2.027.195-.211.406-.195h1.02l.406.195.195.211.207.403v1.008l-.207.402-.195.211-.406.195h-1.02l-.406-.195-.195-.211M501.734 542.746h306.063"/><path stroke-width=".855" stroke-linecap="round" stroke-linejoin="round" fill="none" stroke="#000" d="m749.453 549.219-1.41-2.028M747.039 549.219v-4.262h1.602l.406.211.211.195.195.403v.617l-.195.406-.211.195-.406.207h-1.602M752.902 549.008l-.406.211h-.808l-.407-.211-.207-.406v-1.618l.207-.406.407-.195h.808l.406.195.196.406v.403l-2.024.406M754.523 546.383l1.004 2.836 1.02-2.836M758.168 548.812l.195.196-.195.211-.211-.211.211-.196v.407M758.168 546.578l.195.211-.195.195-.211-.195.211-.211v.406"/><path stroke-width=".42" stroke-linecap="round" stroke-linejoin="round" fill="none" stroke="#000" d="m505.648 549.031.618.196h1.004l.406-.196.211-.211.191-.406v-.402l-.191-.407-.211-.195-.406-.211-.809-.195-.406-.207-.196-.195-.211-.407v-.406l.211-.402.196-.211.406-.196h1.019l.598.196M509.91 549.227v-2.836M509.91 544.98l-.211.196.211.211.195-.211-.195-.196v.407M511.531 546.391h2.219l-2.219 2.836h2.219M516.988 549.031l-.402.196h-.813l-.402-.196-.195-.406v-1.621l.195-.402.402-.211h.813l.402.211.196.402v.406l-2.008.406M519.016 548.82l.195.211-.195.196-.211-.196.211-.211v.407M519.016 546.602l.195.195-.195.207-.211-.207.211-.195v.402M524.07 548.012h2.024M523.664 549.227l1.426-4.247 1.41 4.247M529.738 546.391v2.836M528.734 544.77l-1.019 3.046h2.64M746.746 557.16v-4.246M750.586 557.16v-4.246M750.586 556.965l-.406.195h-.809l-.406-.195-.195-.211-.211-.402v-1.215l.211-.407.195-.195.406-.211h.809l.406.211M752.609 556.754l.211.211-.211.195-.195-.195.195-.211v.406M752.609 554.535l.211.195-.211.211-.195-.211.195-.195v.406M760.109 557.16h-2.429M758.895 557.16v-4.246l-.407.602-.402.406-.406.207M764.953 552.703l-3.629 5.477M768.602 557.16h-2.43M767.387 557.16v-4.246l-.407.602-.406.406-.402.207M501.734 531.406h306.063"/><path stroke-width="1.14" stroke-linecap="round" stroke-linejoin="round" fill="none" stroke="#000" d="M506.52 533.414h3.242M507.434 539.07l.707-5.656M510.945 539.07l.465-3.765M511.648 533.414l-.296.27.238.269.301-.269-.243-.27-.058.539M513.301 535.305h2.16M514.352 533.414l-.602 4.848.195.539.508.269h.543M517.695 539.07l-.511-.269-.196-.539.602-4.848M522.047 538.801l-.57.269h-1.082l-.508-.269-.196-.539.27-2.16.328-.543.57-.254h1.082l.508.254.196.543-.059.539-2.762.539M524.773 538.531l.243.27-.301.269-.238-.269.296-.27-.058.539M525.148 535.559l.243.269-.317.274-.222-.274.296-.269-.074.543"/><path stroke-width=".42" stroke-linecap="round" stroke-linejoin="round" fill="none" stroke="#000" d="M507.27 526.035h-1.411M505.859 528.254v-4.242h2.028M509.504 528.254v-2.832M509.504 524.012l-.207.191.207.211.195-.211-.195-.191v.402M512.129 528.254l-.402-.195-.196-.403v-3.644M515.371 528.059l-.406.195h-.809l-.406-.195-.195-.403v-1.621l.195-.406.406-.207h.809l.406.207.207.406v.406l-2.023.403M517.395 527.852l.195.207-.195.195-.211-.195.211-.207v.402M517.395 525.629l.195.195-.195.211-.211-.211.211-.195v.406M522.66 528.254v-2.832M522.66 524.012l-.211.191.211.211.195-.211-.195-.191v.402M524.684 528.254v-2.832M524.684 525.824l.195-.195.406-.207h.613l.407.207.195.406v2.219"/><path stroke-width=".42" stroke-linecap="round" stroke-linejoin="round" fill="none" stroke="#000" d="m526.5 526.035.211-.406.402-.207h.602l.406.207.207.406v2.219M530.355 528.254v-4.242M530.355 525.629l.407-.207h.808l.407.207.195.195.207.406v1.215l-.207.407-.195.207-.407.195h-.808l-.407-.195M534.809 528.254l-.403-.195-.211-.403v-3.644M538.035 528.059l-.406.195h-.793l-.406-.195-.211-.403v-1.621l.211-.406.406-.207h.793l.406.207.211.406v.406l-2.027.403M539.656 524.012h2.641l-1.426 1.617h.613l.407.195.195.211.211.406v1.004l-.211.407-.195.207-.407.195h-1.214l-.407-.195-.207-.207M544.109 528.254v-4.242M545.941 528.254v-2.219l-.211-.406-.406-.207h-.597l-.407.207-.211.195M546.945 528.66h3.239M553.02 528.254v-4.242M553.02 528.059l-.407.195h-.808l-.407-.195-.195-.207-.207-.407v-1.215l.207-.406.195-.195.407-.207h.808l.407.207M556.664 528.059l-.402.195h-.813l-.402-.195-.195-.403v-1.621l.195-.406.402-.207h.813l.402.207.211.406v.406l-2.023.403M558.691 528.254v-2.832M558.691 525.824l.196-.195.402-.207h.617l.403.207.195.406v2.219"/><path stroke-width=".42" stroke-linecap="round" stroke-linejoin="round" fill="none" stroke="#000" d="m560.504 526.035.211-.406.406-.207h.598l.406.207.211.406v2.219M564.961 528.254l-.406-.195-.196-.207-.211-.407v-1.215l.211-.406.196-.195.406-.207h.613l.406.207.196.195.211.406v1.215l-.211.407-.196.207-.406.195h-.613M567.195 528.66h3.239M573.27 528.254v-2.219l-.211-.406-.403-.207h-.812l-.403.207"/><path stroke-width=".42" stroke-linecap="round" stroke-linejoin="round" fill="none" stroke="#000" d="m573.27 528.059-.407.195h-1.019l-.403-.195-.195-.403v-.406l.195-.406.403-.207h1.019l.407-.196M575.297 525.422v4.242M575.297 525.629l.402-.207h.813l.402.207.195.195.196.406v1.215l-.196.407-.195.207-.402.195h-.813l-.402-.195M579.137 525.422v4.242M579.137 525.629l.402-.207h.813l.402.207.195.195.211.406v1.215l-.211.407-.195.207-.402.195h-.813l-.402-.195M582.977 527.852l.207.207-.207.195-.196-.195.196-.207v.402M585 528.254v-4.242M585.406 526.637l1.215 1.617M586.621 525.422 585 527.039M588.449 528.254v-2.832M588.449 524.012l-.211.191.211.211.196-.211-.196-.191v.402M592.289 528.059l-.402.195h-.813l-.402-.195-.195-.207-.211-.407v-1.215l.211-.406.195-.195.402-.207h.813l.402.207M595.934 528.254v-2.219l-.196-.406-.402-.207h-.813l-.402.207"/><path stroke-width=".42" stroke-linecap="round" stroke-linejoin="round" fill="none" stroke="#000" d="m595.934 528.059-.403.195h-1.008l-.402-.195-.211-.403v-.406l.211-.406.402-.207h1.008l.403-.196M599.773 528.254v-4.242M599.773 528.059l-.402.195h-.812l-.403-.195-.195-.207-.211-.407v-1.215l.211-.406.195-.195.403-.207h.812l.402.207M600.797 528.66h3.238M604.844 528.059l.406.195h.809l.406-.195.195-.403v-.211l-.195-.406-.406-.195h-.614l-.406-.207-.195-.407v-.195l.195-.406.406-.207h.614l.406.207M610.305 528.059l-.407.195h-.808l-.406-.195-.196-.207-.207-.407v-1.215l.207-.406.196-.195.406-.207h.808l.407.207M612.137 528.254v-4.242M613.949 528.254v-2.219l-.195-.406-.402-.207h-.618l-.406.207-.191.195M501.734 514.41h306.063M505.648 520.395l.618.21h1.004l.406-.21.211-.196.191-.402v-.406l-.191-.407-.211-.211-.406-.195-.809-.207-.406-.195-.196-.211-.211-.406v-.403l.211-.406.196-.195.406-.196h1.019l.598.196M509.91 520.605v-4.246M511.727 520.605v-2.234l-.196-.406-.406-.195h-.613l-.407.195-.195.211M515.371 520.395l-.406.21h-.809l-.406-.21-.195-.407v-1.617l.195-.406.406-.195h.809l.406.195.207.406v.402l-2.023.407M519.016 520.395l-.407.21h-.808l-.406-.21-.211-.407v-1.617l.211-.406.406-.195h.808l.407.195.195.406v.402l-2.027.407M520.426 517.77h1.621M521.039 516.359v3.629l.195.407.407.21h.406M523.469 520.199l.195.196-.195.21-.207-.21.207-.196v.406M523.469 517.965l.195.211-.195.195-.207-.195.207-.211v.406M531.766 516.148l-3.645 5.461M558.406 542.746v8.504M739.785 542.746v18.418"/><path stroke-width=".435" stroke-linecap="round" stroke-linejoin="round" fill="none" stroke="#000" d="M406.824 172.074v.719M406.824 159.113v-.722M406.824 167.754l2.879 1.078-2.879 1.082-2.883 1.078 2.883 1.082M406.824 163.434l2.879 1.078-2.879 1.082-2.883 1.078 2.883 1.082M406.824 159.113l2.879 1.078-2.879 1.082-2.883 1.079 2.883 1.082M406.824 158.391v-3.598M406.824 172.793v3.598M194.469 154.074v.719M194.469 141.113v-.722M194.469 149.754l2.879 1.078-2.879 1.082-2.883 1.078 2.883 1.082M194.469 145.434l2.879 1.078-2.879 1.082-2.883 1.078 2.883 1.082M194.469 141.113l2.879 1.078-2.879 1.082-2.883 1.079 2.883 1.082M194.469 140.391v-3.598M194.469 154.793v3.598M113.496 206.977h3.602M114.938 208.777h.718M115.297 205.176v-3.598M118.898 205.176h-7.199M115.297 201.578h0M117.098 131.391h3.601M118.539 133.191h.719M118.898 129.609v-3.601M122.496 129.609h-7.199M118.898 126.008h0M279.051 257.363h3.601M280.492 259.164h.719M280.852 255.562v-3.585M284.453 255.562h-7.199M280.852 251.977h0"/><path stroke-width=".72" stroke-linecap="round" stroke-linejoin="round" fill="none" stroke="#000" d="M277.246 233.969h7.199"/><path stroke-width=".435" stroke-linecap="round" stroke-linejoin="round" fill="none" stroke="#000" d="M280.852 233.977v-7.2"/><path stroke-width=".72" stroke-linecap="round" stroke-linejoin="round" fill="none" stroke="#000" d="M277.246 226.77h7.199l-3.601 7.199-3.598-7.199"/><path stroke-width=".435" stroke-linecap="round" stroke-linejoin="round" fill="none" stroke="#000" d="m278.691 239.016-4.32 4.32v-2.16 2.16h2.16M278.691 235.418l-4.32 4.32v-2.16 2.16h2.16M280.852 233.977v7.199M280.852 226.777v-7.199M192.668 214.176h3.598M194.109 215.977h.719M194.469 212.379v-3.602M198.066 212.379h-7.183M194.469 208.777h0"/><path stroke-width=".72" stroke-linecap="round" stroke-linejoin="round" fill="none" stroke="#000" d="M313.246 151.184h57.582v57.586h-57.582z"/><path stroke-width=".435" stroke-linecap="round" stroke-linejoin="round" fill="none" stroke="#000" d="M342.039 151.191v-14.398M340.086 162.637l3.602-1.199-3.602-1.2M343.688 159.039h-3.602v-.855l.168-.512.344-.344.343-.164.676-.18h.524l.675.18.348.164.344.344.18.512v.855M343.688 155.438h-3.602v-.856l.168-.508.344-.347.343-.165.676-.179h.524l.675.179.348.165.344.347.18.508v.856M340.852 142.973v2.054M340.852 143.992h-3.598l.523.344.332.348.18.343M370.836 187.191h14.387M361.449 185.406l-.347-.179h-.524l-.512.179-.343.332-.164.344-.18.691v.508l.18.692.164.343.343.348.512.164h.344l.527-.164.164-.18v-1.203h-.691M363.156 188.828v-3.601h1.367l.344.179.164.168.18.344v.508l-.18.347-.164.165-.344.179h-1.367M368.469 185.227h-1.711l-.18 1.711.18-.165.344-.164h.855l.344.164.168.165.164.343v.856l-.164.347-.168.18-.344.164h-.855l-.344-.164-.18-.18M377.004 182.754l.164-.18.344-.168h.855l.344.168.18.18.168.328v.344l-.168.527-2.055 2.055h2.223M370.836 179.992h14.387M361.449 178.207l-.347-.18h-.524l-.512.18-.343.344-.164.332-.18.691v.508l.18.691.164.344.343.344.512.168h.344l.527-.168.164-.18v-1.199h-.691M363.156 181.629v-3.602h1.367l.344.18.164.164.18.348v.508l-.18.347-.164.18-.344.164h-1.367M368.301 179.227v2.402M367.434 177.863l-.856 2.563h2.234M376.836 175.207h2.223l-1.2 1.367h.508l.344.18.18.164.168.344v.855l-.168.344-.18.168-.344.18h-1.019l-.344-.18-.168-.168M370.836 172.793h14.387M361.449 171.008l-.347-.18h-.524l-.512.18-.343.344-.164.347-.18.672v.512l.18.691.164.344.343.344.512.164h.344l.527-.164.164-.18v-1.199h-.691M363.156 174.426v-3.598h1.367l.344.18.164.164.18.344v.511l-.18.344-.164.18-.344.168h-1.367M366.414 170.828h2.219l-1.199 1.379h.523l.344.164.168.18.164.332v.871l-.164.328-.168.18-.344.164h-1.035l-.344-.164-.164-.18M378.711 169.207v2.402M377.859 167.844l-.855 2.562h2.219M313.254 187.191h-14.402M317.496 185.406l-.344-.179h-.511l-.524.179-.328.332-.18.344-.168.691v.508l.168.692.18.343.328.348.524.164h.347l.508-.164.168-.18v-1.203h-.676M319.207 188.828v-3.601h1.379l.332.179.18.168.164.344v.508l-.164.347-.18.165-.332.179h-1.379M322.641 185.574l.168-.168.343-.179h.856l.344.179.164.168.183.344v.344l-.183.511-2.055 2.055h2.238M306.906 182.406h-1.707l-.183 1.711.183-.164.328-.18h.871l.329.18.179.164.168.344v.855l-.168.348-.179.164-.329.18h-.871l-.328-.18-.183-.164M313.254 179.992h-14.402M317.496 178.207l-.344-.18h-.511l-.524.18-.328.344-.18.332-.168.691v.508l.168.691.18.344.328.344.524.168h.347l.508-.168.168-.18v-1.199h-.676M319.207 181.629v-3.602h1.379l.332.18.18.164.164.348v.508l-.164.347-.18.18-.332.164h-1.379M324.699 181.629h-2.058M323.664 181.629v-3.602l-.348.524-.343.332-.332.179M306.727 175.207h-.676l-.344.164-.18.18-.328.511-.183.692v1.363l.183.344.164.168.344.18h.691l.329-.18.179-.168.168-.344v-.855l-.168-.344-.179-.164-.329-.18h-.691l-.344.18-.164.164-.183.344M313.254 172.793h-14.402M317.496 171.008l-.344-.18h-.511l-.524.18-.328.344-.18.347-.168.672v.512l.168.691.18.344.328.344.524.164h.347l.508-.164.168-.18v-1.199h-.676M319.207 174.426v-3.598h1.379l.332.18.18.164.164.344v.511l-.164.344-.18.18-.332.168h-1.379M323.496 170.828h.348l.328.18.18.164.164.344.183.691v.855l-.183.692-.164.328-.18.18-.328.164h-.348l-.344-.164-.179-.18-.164-.328-.168-.692v-.855l.168-.691.164-.344.179-.164.344-.18M304.852 168.008h2.402l-1.547 3.601M342.039 208.777v14.399M340.086 206.934l3.602-1.2-3.602-1.203M343.508 203.496l.18-.508v-.855l-.18-.344-.164-.168-.348-.18h-.344l-.343.18-.168.168-.18.344-.164.691-.18.328-.164.18-.344.164h-.347l-.344-.164-.164-.18-.168-.328v-.855l.168-.528M343.508 200.078l.18-.512v-.867l-.18-.332-.164-.179-.348-.165h-.344l-.343.165-.168.179-.18.332-.164.688-.18.347-.164.164-.344.18h-.347l-.344-.18-.164-.164-.168-.347v-.856l.168-.508M338.797 216.324l-.164.344-.18.164-.344.18h-.168l-.343-.18-.164-.164-.18-.344v-.691l.18-.344.164-.168.343-.164h.168l.344.164.18.168.164.344v.691l.18.344.164.164.347.18h.688l.332-.18.18-.164.164-.344v-.691l-.164-.344-.18-.168-.332-.164h-.688l-.347.164-.164.168-.18.344M339.879 133.191l2.16-3.582M342.039 136.793v-7.184M342.039 129.609l2.16 3.582M342.039 136.793h0M340.238 239.379h3.598M341.676 241.176h.722M342.039 237.578v-3.601M345.637 237.578h-7.199M342.039 233.977h0M426.262 147.594l2.16-3.602M428.422 151.191v-7.199M428.422 143.992l2.16 3.602M428.422 151.191h0M428.422 159.113v-.722M428.422 172.074v.719M428.422 163.434l-2.879-1.082 2.879-1.079 2.879-1.082-2.879-1.078M428.422 167.754l-2.879-1.082 2.879-1.078 2.879-1.082-2.879-1.078M428.422 172.074l-2.879-1.082 2.879-1.078 2.879-1.082-2.879-1.078M428.422 172.793v3.598M428.422 158.391v-3.598M452.895 187.191c0 .801-.649 1.45-1.446 1.45a1.448 1.448 0 1 1 1.446-1.45zM457.207 183.594v-5.043M464.406 183.594h-14.398M464.414 187.191a1.448 1.448 0 1 1-2.896.004 1.448 1.448 0 0 1 2.896-.004zM450.008 187.191h-7.199M464.406 187.191h7.203M194.469 204.457v.719M194.469 191.512v-.719M194.469 200.137l2.879 1.082-2.879 1.078-2.883 1.082 2.883 1.078M194.469 195.816l2.879 1.082-2.879 1.079-2.883 1.082 2.883 1.078M194.469 191.512l2.879 1.066-2.879 1.078-2.883 1.082 2.883 1.078M194.469 190.793v-3.602M194.469 205.176v3.601M194.469 182.871v.723M194.469 169.914v-.723M194.469 178.551l2.879 1.082-2.879 1.078-2.883 1.082 2.883 1.078"/><path stroke-width=".435" stroke-linecap="round" stroke-linejoin="round" fill="none" stroke="#000" d="m194.469 174.234 2.879 1.078-2.879 1.079-2.883 1.082 2.883 1.078M194.469 169.914l2.879 1.078-2.879 1.082-2.883 1.078 2.883 1.082"/><path stroke-width=".435" stroke-linecap="round" stroke-linejoin="round" fill="none" stroke="#000" d="m200.949 172.074.719-2.883-2.879.723 2.879-.723-12.945 12.961M194.469 169.191v-3.597M194.469 183.594v3.597M280.852 215.258v.719M280.852 202.297v-.719M280.852 210.938l2.882 1.078-2.882 1.082-2.879 1.078 2.879 1.082M280.852 206.617l2.882 1.082-2.882 1.078-2.879 1.082 2.879 1.079M280.852 202.297l2.882 1.082-2.882 1.078-2.879 1.082 2.879 1.078M280.852 201.578v-3.601M280.852 215.977v3.601M484.207 206.977h3.602M485.648 208.777h.719M486.008 205.176v-3.598M489.609 205.176h-7.203M486.008 201.578h0M192.309 126.008l2.16-3.602M194.469 129.609v-7.203M194.469 122.406l2.16 3.602M194.469 129.609h0M138.324 97.207l2.16-3.598M140.484 100.809v-7.2M140.484 93.609l2.157 3.598M140.484 100.809h0M93.699 114.848h3.598v.719h-3.598zM93.699 107.648h3.598v.719h-3.598z"/><path stroke-width=".72" stroke-linecap="round" stroke-linejoin="round" fill="none" stroke="#000" d="M93.691 104.398h7.199V118.8h-7.199z"/><path stroke-width=".435" stroke-linecap="round" stroke-linejoin="round" fill="none" stroke="#000" d="M93.699 108.008H82.898M89.332 106.824h-2.055M88.297 106.824v-3.601l-.344.511-.344.344-.332.18M93.699 115.207H82.898M87.277 110.766l.164-.18.348-.164h.852l.347.164.164.18.18.347v.328l-.18.528-2.054 2.054h2.234M196.266 422.934h3.601M197.707 424.734h.719M198.066 421.133v-3.602M201.668 421.133h-7.199M198.066 417.531h0M115.297 409.973h3.602v.719h-3.602zM115.297 402.773h3.602v.719h-3.602zM115.297 395.574h3.602v.719h-3.602zM115.297 388.371h3.602v.723h-3.602zM115.297 381.172h3.602v.719h-3.602zM115.297 373.988h3.602v.719h-3.602zM115.297 366.789h3.602v.719h-3.602zM115.297 359.586h3.602v.723h-3.602zM115.297 352.387h3.602v.723h-3.602z"/><path stroke-width=".72" stroke-linecap="round" stroke-linejoin="round" fill="none" stroke="#000" d="M115.289 349.141h7.199v64.785h-7.199z"/><path stroke-width=".435" stroke-linecap="round" stroke-linejoin="round" fill="none" stroke="#000" d="M115.297 352.746h-10.801M110.918 351.562h-2.055M109.898 351.562v-3.601l-.347.512-.344.343-.344.18M115.297 359.949h-10.801M108.863 355.508l.18-.18.344-.164h.855l.344.164.168.18.164.344v.347l-.164.508-2.055 2.055h2.219M115.297 367.148h-10.801M108.699 362.363h2.219l-1.199 1.364h.523l.344.179.168.168.164.344v.855l-.164.344-.168.164-.344.18h-1.035l-.344-.18-.164-.164M115.297 374.348h-10.801M110.586 370.762v2.402M109.719 369.383l-.856 2.578h2.235M115.297 381.531h-10.801M110.754 376.762h-1.711l-.18 1.711.18-.18.344-.164h.855l.344.164.168.18.164.343v.856l-.164.344-.168.168-.344.179h-.855l-.344-.179-.18-.168M115.297 388.734h-10.801M110.586 383.961h-.688l-.347.168-.164.164-.344.523-.18.676v1.379l.18.348.164.164.344.164h.691l.344-.164.168-.164.164-.348v-.855l-.164-.344-.168-.18-.344-.164h-.691l-.344.164-.164.18-.18.344M115.297 395.934h-10.801M108.699 391.148h2.399l-1.547 3.598M115.297 403.133h-10.801M109.551 399.891l-.344-.164-.164-.18-.18-.344v-.164l.18-.348.164-.164.344-.179h.691l.344.179.168.164.164.348v.164l-.164.344-.168.18-.344.164h-.691l-.344.183-.164.164-.18.344v.691l.18.329.164.179.344.168h.691l.344-.168.168-.179.164-.329v-.691l-.164-.344-.168-.164-.344-.183M115.297 410.332h-10.801M109.207 409.148h.691l.344-.164.164-.183.348-.508.164-.691v-1.364l-.164-.347-.168-.164-.344-.18h-.691l-.344.18-.164.164-.18.347v.856l.18.344.164.164.344.179h.691l.344-.179.168-.164.164-.344"/><path stroke-width=".45" stroke-linecap="round" stroke-linejoin="round" fill="none" stroke="#000" d="m104.488 403.125-3.148-3.602H87.613v7.204h13.727l3.148-3.602"/><path stroke-width=".435" stroke-linecap="round" stroke-linejoin="round" fill="none" stroke="#000" d="M90.742 401.438h2.219l-1.199 1.363h.511l.344.183.18.164.164.344v.856l-.164.343-.18.168-.344.18h-1.019l-.348-.18-.164-.168M93.996 401.438l1.203 3.601 1.199-3.601M98.273 401.438h.344l.344.164.168.179.18.348.164.672v.855l-.164.692-.18.343-.168.168-.344.18h-.344l-.347-.18-.164-.168-.164-.343-.18-.692v-.855l.18-.672.164-.348.164-.179.347-.164M95.496 422.934h3.602M96.938 424.734h.718M97.297 421.133v-3.602M100.898 421.133h-7.199M97.297 417.531h0"/><path stroke-width=".45" stroke-linecap="round" stroke-linejoin="round" fill="none" stroke="#000" d="m172.875 500.309-3.148-3.598H156v7.199h13.727l3.148-3.601"/><path stroke-width=".435" stroke-linecap="round" stroke-linejoin="round" fill="none" stroke="#000" d="M159.129 498.609h2.219l-1.2 1.379h.508l.348.164.18.18.164.332v.852l-.164.347-.18.18-.348.164h-1.019l-.344-.164-.164-.18M162.383 498.609l1.199 3.598 1.199-3.598M166.656 498.609h.348l.344.18.164.164.179.344.168.691v.856l-.168.672-.179.347-.164.18-.344.164h-.348l-.344-.164-.164-.18-.164-.347-.183-.672v-.856l.183-.691.164-.344.164-.164.344-.18M183.684 507.141h3.598v.723h-3.598zM183.684 499.957h3.598v.719h-3.598z"/><path stroke-width=".72" stroke-linecap="round" stroke-linejoin="round" fill="none" stroke="#000" d="M183.676 496.711h7.199v14.383h-7.199z"/><path stroke-width=".435" stroke-linecap="round" stroke-linejoin="round" fill="none" stroke="#000" d="M183.684 500.316h-10.801M179.301 499.133h-2.055M178.281 499.133v-3.602l-.343.512-.344.344-.348.164M183.684 507.504h-10.801M177.246 503.062l.18-.164.332-.164h.871l.328.164.18.164.164.344v.348l-.164.508-2.055 2.07h2.219M160.281 523.703h3.602M161.723 525.504h.718M162.082 521.902v-3.601M165.684 521.902h-7.2M162.082 518.301h0"/><path stroke-width=".45" stroke-linecap="round" stroke-linejoin="round" fill="none" stroke="#000" d="m82.891 108-3.153-3.602H66.031v7.204h13.707L82.891 108"/><path stroke-width=".435" stroke-linecap="round" stroke-linejoin="round" fill="none" stroke="#000" d="M69.141 106.312h2.222l-1.187 1.364h.512l.343.168.168.179.164.344v.856l-.164.343-.168.168-.343.18h-1.036l-.343-.18-.168-.168M72.398 106.312l1.2 3.602 1.199-3.602M76.688 106.312h.343l.332.165.18.164.164.347.18.688v.855l-.18.692-.164.343-.18.168-.332.18h-.343l-.344-.18-.18-.168-.168-.343-.164-.692v-.855l.164-.688.168-.347.18-.164.344-.165"/><path stroke-width=".45" stroke-linecap="round" stroke-linejoin="round" fill="none" stroke="#000" d="m86.488 187.184-3.148-3.598H68.941v7.199H83.34l3.148-3.601"/><path stroke-width=".435" stroke-linecap="round" stroke-linejoin="round" fill="none" stroke="#000" d="m74.453 189.082-1.199-1.711M72.398 189.082v-3.598h1.364l.347.18.18.164.164.344v.512l-.164.343-.18.18-.347.164h-1.364M75.652 185.484l2.399 3.598M78.051 185.484l-2.399 3.598M79.434 189.082v-3.598h.855l.508.18.344.344.168.328.179.691v.512l-.179.688-.168.347-.344.344-.508.164h-.855"/><path stroke-width=".45" stroke-linecap="round" stroke-linejoin="round" fill="none" stroke="#000" d="m86.488 172.785-3.148-3.601H68.594v7.203H83.34l3.148-3.602"/><path stroke-width=".435" stroke-linecap="round" stroke-linejoin="round" fill="none" stroke="#000" d="m73.941 171.262-.343-.164h-.512l-.524.164-.328.347-.183.344-.164.676v.523l.164.676.183.344.328.344.524.168h.348l.507-.168.168-.164v-1.2h-.675M75.652 174.684v-3.586l2.055 3.586v-3.586M79.434 174.684v-3.586h.855l.508.164.344.347.168.344.179.676v.523l-.179.676-.168.344-.344.344-.508.168h-.855"/><path stroke-width=".45" stroke-linecap="round" stroke-linejoin="round" fill="none" stroke="#000" d="m82.891 115.199-3.153-3.597H64.996v7.199h14.742l3.153-3.602"/><path stroke-width=".435" stroke-linecap="round" stroke-linejoin="round" fill="none" stroke="#000" d="m70.344 113.676-.348-.18h-.508l-.511.18-.344.347-.18.344-.164.676v.523l.164.676.18.344.344.348.511.164h.344l.512-.164.164-.168v-1.2h-.676M72.051 117.098v-3.602l2.058 3.602v-3.602M75.832 117.098v-3.602h.856l.511.18.344.347.164.344.18.676v.523l-.18.676-.164.344-.344.348-.511.164h-.856"/><path stroke-width=".45" stroke-linecap="round" stroke-linejoin="round" fill="none" stroke="#000" d="m86.488 179.984-3.148-3.597H69.797v7.199H83.34l3.148-3.602"/><path stroke-width=".435" stroke-linecap="round" stroke-linejoin="round" fill="none" stroke="#000" d="M72.742 178.281h2.055M73.762 181.883v-3.602M75.652 178.281l2.399 3.602M78.051 178.281l-2.399 3.602M79.434 181.883v-3.602h.855l.508.18.344.348.168.343.179.676v.524l-.179.675-.168.344-.344.348-.508.164h-.855M97.297 186.832h3.602v.719h-3.602zM97.297 179.633h3.602v.719h-3.602zM97.297 172.434h3.602v.719h-3.602z"/><path stroke-width=".72" stroke-linecap="round" stroke-linejoin="round" fill="none" stroke="#000" d="M97.289 169.184h7.199v21.602h-7.199z"/><path stroke-width=".435" stroke-linecap="round" stroke-linejoin="round" fill="none" stroke="#000" d="M97.297 172.793H86.496M92.934 171.609h-2.055M91.898 171.609v-3.601l-.347.508-.344.347-.328.18M97.297 179.992H86.496M90.879 175.551l.164-.18.344-.164h.855l.344.164.168.18.18.347v.329l-.18.527-2.055 2.055h2.235M97.297 187.191H86.496M90.699 182.406h2.235l-1.2 1.367h.508l.344.18.168.164.18.344v.855l-.18.348-.168.164-.344.18h-1.035l-.328-.18-.18-.164M219.668 409.973h3.598v.719h-3.598zM219.668 402.773h3.598v.719h-3.598zM219.668 395.574h3.598v.719h-3.598zM219.668 388.371h3.598v.723h-3.598zM219.668 381.172h3.598v.719h-3.598zM219.668 373.988h3.598v.719h-3.598zM219.668 366.789h3.598v.719h-3.598zM219.668 359.586h3.598v.723h-3.598zM219.668 352.387h3.598v.723h-3.598z"/><path stroke-width=".72" stroke-linecap="round" stroke-linejoin="round" fill="none" stroke="#000" d="M219.66 349.141h7.199v64.785h-7.199z"/><path stroke-width=".435" stroke-linecap="round" stroke-linejoin="round" fill="none" stroke="#000" d="M219.668 352.746h-10.801M215.301 351.562h-2.055M214.266 351.562v-3.601l-.344.512-.344.343-.332.18M219.668 359.949h-10.801M213.246 355.508l.168-.18.344-.164h.855l.344.164.164.18.18.344v.347l-.18.508-2.055 2.055h2.235M219.668 367.148h-10.801M213.066 362.363h2.235l-1.199 1.364h.511l.344.179.164.168.18.344v.855l-.18.344-.164.164-.344.18h-1.035l-.332-.18-.18-.164M219.668 374.348h-10.801M214.957 370.762v2.402M214.102 369.383l-.856 2.578h2.223M219.668 381.531h-10.801M215.121 376.762h-1.707l-.168 1.711.168-.18.344-.164h.855l.344.164.164.18.18.343v.856l-.18.344-.164.168-.344.179h-.855l-.344-.179-.168-.168M219.668 388.734h-10.801M214.957 383.961h-.691l-.344.168-.164.164-.344.523-.168.676v1.379l.168.348.164.164.344.164h.691l.344-.164.164-.164.18-.348v-.855l-.18-.344-.164-.18-.344-.164h-.691l-.344.164-.164.18-.168.344M219.668 395.934h-10.801M213.066 391.148h2.403l-1.547 3.598M219.668 403.133h-10.801M213.922 399.891l-.344-.164-.164-.18-.168-.344v-.164l.168-.348.164-.164.344-.179h.691l.344.179.164.164.18.348v.164l-.18.344-.164.18-.344.164h-.691l-.344.183-.164.164-.168.344v.691l.168.329.164.179.344.168h.691l.344-.168.164-.179.18-.329v-.691l-.18-.344-.164-.164-.344-.183M219.668 410.332h-10.801M213.578 409.148h.688l.347-.164.164-.183.344-.508.18-.691v-1.364l-.18-.347-.164-.164-.344-.18h-.691l-.344.18-.164.164-.168.347v.856l.168.344.164.164.344.179h.691l.344-.179.164-.164.18-.344"/><path stroke-width=".45" stroke-linecap="round" stroke-linejoin="round" fill="none" stroke="#000" d="m208.859 381.523-3.148-3.597h-21.602v7.199h21.602l3.148-3.602"/><path stroke-width=".435" stroke-linecap="round" stroke-linejoin="round" fill="none" stroke="#000" d="M187.059 381.039h1.363M187.566 379.836v3.09l.18.347.332.165h.344M190.148 383.438l-.347-.165-.18-.179-.164-.348v-1.019l.164-.344.18-.164.347-.18h.508l.348.18.164.164.18.344v1.019l-.18.348-.164.179-.348.165h-.508M195.113 379.836h2.055M196.133 383.438v-3.602M198.023 379.836l2.399 3.602M200.422 379.836l-2.399 3.602M201.801 383.438v-3.602h.855l.512.18.344.332.164.343.183.692v.508l-.183.691-.164.344-.344.347-.512.165h-.855"/><path stroke-width=".45" stroke-linecap="round" stroke-linejoin="round" fill="none" stroke="#000" d="m208.859 388.727-3.148-3.602h-22.457v7.199h22.457l3.148-3.597"/><path stroke-width=".435" stroke-linecap="round" stroke-linejoin="round" fill="none" stroke="#000" d="M186.203 388.238h1.363M186.711 387.039v3.09l.18.344.332.164h.343M189.277 390.637l-.328-.164-.183-.18-.164-.344v-1.023l.164-.344.183-.18.328-.164h.524l.347.164.164.18.165.344v1.023l-.165.344-.164.18-.347.164h-.524M196.824 390.637l-1.203-1.711M194.766 390.637v-3.598h1.367l.344.164.179.18.168.344v.511l-.168.344-.179.164-.344.18h-1.367M198.023 387.039l2.399 3.598M200.422 387.039l-2.399 3.598M201.801 390.637v-3.598h.855l.512.164.344.344.164.344.183.691v.512l-.183.687-.164.348-.344.344-.512.164h-.855M385.223 187.191h43.199M406.824 176.391v3.601M385.223 179.992h21.601M406.824 154.793h21.598M194.469 158.391v7.203M194.469 129.609v7.184M97.297 187.191h35.984M406.824 280.762H133.281M144.082 237.578v-57.586M252.066 237.578H144.082M194.469 187.191h104.383M342.039 223.176v10.801M406.824 179.992v100.77M280.852 172.793h18M280.852 241.176v10.801M428.422 176.391v10.8M428.422 151.191v3.602M280.852 197.977v-25.184M252.066 179.992h46.786M252.066 179.992v57.586M428.422 187.191h14.387M471.609 187.191h14.399M486.008 187.191v14.387M97.297 172.793h18M97.297 410.332h7.199M133.281 280.762v-93.571M115.297 172.793v28.785M93.699 115.207h25.199M118.898 115.207v10.801M140.484 100.809v7.199M93.699 108.008h46.785M97.297 417.531v-7.199M162.082 507.504v10.797M172.883 507.504h-10.801M97.297 179.992h46.785M198.066 410.332v7.199M208.867 410.332h-10.801M75.938 319.598v-3.602M77.664 319.598v-3.602l1.199 2.582 1.199-2.582v3.602M82.973 317.723l.511.164.18.179.164.332v.524l-.164.344-.18.168-.347.164h-1.364v-3.602h1.2l.343.18.168.168.18.344v.343l-.18.348-.168.164-.343.18h-1.2M87.082 319.598h-1.711v-3.602M88.281 317.723h1.203M89.992 319.598h-1.711v-3.602h1.711M91.191 315.996h2.235l-1.199 1.383h.511l.344.164.164.18.18.343v.856l-.18.344-.164.168-.344.164h-1.019l-.348-.164-.18-.168M94.973 319.598v-3.602M96.516 319.598v-1.875l-.18-.344-.344-.18h-.508l-.347.18-.164.164M98.227 318.234h2.746M102.504 318.578h1.723M102.172 319.598l1.199-3.602 1.203 3.602M105.773 319.598v-3.602h.856l.508.18.347.347.164.344.18.676v.523l-.18.676-.164.344-.347.348-.508.164h-.856M109.359 319.598v-3.602h1.379l.344.18.164.168.18.344v.511l-.18.344-.164.18-.344.164h-1.379"/><path stroke-width=".435" stroke-linecap="round" stroke-linejoin="round" fill="none" stroke="#000" d="M72.098 313.164h248.34v129.555H72.098zM145.523 483.277l.524.164.164.18.168.348v.508l-.168.347-.164.164-.344.18h-1.379v-3.602h1.199l.344.168.18.18.164.328v.344l-.164.348-.18.179-.344.164h-1.199M149.469 485.168v-1.891l-.168-.343-.344-.168h-.691l-.344.168"/><path stroke-width=".435" stroke-linecap="round" stroke-linejoin="round" fill="none" stroke="#000" d="m149.469 484.988-.348.18h-.855l-.344-.18-.164-.347v-.329l.164-.343.344-.18h.855l.348-.168M150.668 482.766h1.363M151.176 481.566v3.075l.183.347.344.18h.328M152.723 482.766h1.379M153.234 481.566v3.075l.18.347.344.18h.344M156.668 484.988l-.344.18h-.691l-.332-.18-.18-.347v-1.364l.18-.343.332-.168h.691l.344.168.164.343v.344l-1.711.348M158.379 485.168v-2.402M158.379 483.441l.18-.328.164-.179.343-.168h.348M160.266 482.766l.855 2.402M161.977 482.766l-.856 2.402-.344.855-.164.165-.347.179"/><path stroke-width=".435" stroke-linecap="round" stroke-linejoin="round" fill="none" stroke="#000" d="M140.484 478.719h89.984v61.184h-89.984zM383.496 171.066l3.465 3.45M383.496 174.516l3.465-3.45"/><path d="M195.766 187.191a1.296 1.296 0 1 1-2.592.002 1.296 1.296 0 0 1 2.592-.002zM408.121 179.992c0 .719-.582 1.297-1.297 1.297a1.297 1.297 0 1 1 0-2.594c.715 0 1.297.582 1.297 1.297zM429.719 154.793a1.296 1.296 0 1 1-2.594 0 1.296 1.296 0 1 1 2.594 0zM429.719 187.191a1.296 1.296 0 1 1-2.596.002 1.296 1.296 0 0 1 2.596-.002zm0 0"/><path stroke-width=".435" stroke-linecap="round" stroke-linejoin="round" fill="none" stroke="#000" d="M416.738 168.426v2.402M415.883 167.062l-.856 2.567h2.219M418.629 170.496l.164.168-.164.164-.18-.164.18-.168v.332M419.992 167.227h2.399l-1.543 3.601M423.758 170.828v-3.601M424.102 169.461l1.035 1.367M425.137 168.426l-1.379 1.383M204.727 152.844h-2.055M203.707 152.844v-3.602l-.344.512-.347.344-.344.164M206.273 152.844v-3.602M206.617 151.461l1.02 1.383M207.637 150.441l-1.364 1.368M107.586 214.191l-.344-.164h-.523l-.512.164-.344.348-.164.344-.183.691v.508l.183.676.164.344.344.347.512.18h.343l.524-.18.168-.168v-1.199h-.692M109.297 217.629v-3.602l2.055 3.602v-3.602M113.062 217.629v-3.602h.856l.523.164.332.348.18.344.164.691v.508l-.164.676-.18.344-.332.347-.523.18h-.856M118.719 217.629l-1.203-1.727M116.664 217.629v-3.602h1.379l.328.164.18.18.168.332v.524l-.168.347-.18.164-.328.164h-1.379M120.262 215.738h1.199M121.973 217.629h-1.711v-3.602h1.711M124.719 215.738h-1.203M123.516 217.629v-3.602h1.711M111.188 138.609l-.344-.168h-.528l-.507.168-.348.344-.164.344-.18.691v.508l.18.692.164.343.348.332.507.18h.348l.524-.18.164-.164v-1.203h-.688M112.898 142.043v-3.602l2.055 3.602v-3.602M116.664 142.043v-3.602h.852l.527.168.328.344.18.344.168.691v.508l-.168.692-.18.343-.328.332-.527.18h-.852M122.316 142.043l-1.199-1.711M120.262 142.043v-3.602h1.367l.344.168.179.18.164.344v.508l-.164.347-.179.164-.344.18h-1.367M123.863 140.152h1.199M125.574 142.043h-1.711v-3.602h1.711M128.316 140.152h-1.199M127.117 142.043v-3.602h1.711M273.141 264.578l-.344-.164h-.508l-.512.164-.343.344-.18.344-.168.691v.512l.168.687.18.348.343.328.512.18h.344l.508-.18.168-.164v-1.199h-.676M274.852 268.012v-3.598l2.054 3.598v-3.598M278.633 268.012v-3.598h.855l.508.164.348.344.164.344.18.691v.512l-.18.687-.164.348-.348.328-.508.18h-.855M284.289 268.012l-1.203-1.711M282.219 268.012v-3.598h1.379l.343.164.168.18.18.344v.511l-.18.344-.168.164-.343.18h-1.379M285.816 266.121h1.2M287.543 268.012h-1.727v-3.598h1.727M290.273 266.121h-1.187M289.086 268.012v-3.598h1.711M293.289 237.188v1.71h-3.601M291.414 235.988v-1.199M293.289 234.277v1.711h-3.601v-1.711M293.289 232.734h-3.601v-.855l.179-.512.344-.344.348-.179.675-.168h.524l.676.168.343.179.344.344.168.512v.855M186.758 221.391l-.344-.164h-.512l-.511.164-.344.347-.164.344-.18.676v.523l.18.676.164.344.344.347.511.18h.344l.512-.18.18-.164v-1.203h-.692M188.484 224.828v-3.601l2.055 3.601v-3.601M192.246 224.828v-3.601h.856l.511.164.344.347.18.344.164.676v.523l-.164.676-.18.344-.344.347-.511.18h-.856M197.902 224.828l-1.199-1.726M195.848 224.828v-3.601h1.363l.348.164.179.168.164.343v.524l-.164.332-.179.18-.348.164h-1.363M199.449 222.938h1.199M201.156 224.828h-1.707v-3.601h1.707M203.902 222.938h-1.199M202.703 224.828v-3.601h1.711M349.434 145.641v-3.598h1.363l.344.164.168.18.179.347v.508l-.179.344-.168.168-.344.18h-1.363M353.031 145.641v-3.598M356.797 145.297l-.164.164-.524.18h-.332l-.523-.18-.348-.328-.164-.344-.164-.691v-.512l.164-.688.164-.347.348-.344.523-.164h.332l.524.164.164.18M360.234 145.641h-2.07M359.199 145.641v-3.598l-.347.508-.344.347-.344.164M361.598 142.387l.164-.18.347-.164h.852l.348.164.179.18.164.347v.328l-.164.524-2.054 2.055h2.218M366.398 143.754h-1.199M365.199 145.641v-3.598h1.707M369.816 142.043h-.675l-.344.164-.18.18-.328.511-.18.688v1.367l.18.344.164.164.344.18h.691l.328-.18.18-.164.168-.344v-.855l-.168-.344-.18-.168-.328-.18h-.691l-.344.18-.164.168-.18.344M372.219 143.586l-.332-.18-.18-.164-.164-.344v-.164l.164-.347.18-.18.332-.164h.687l.348.164.164.18.18.347v.164l-.18.344-.164.164-.348.18h-.687l-.332.168-.18.18-.164.328v.691l.164.344.18.164.332.18h.687l.348-.18.164-.164.18-.344v-.691l-.18-.328-.164-.18-.348-.168M374.797 142.043h2.219l-1.2 1.363h.528l.328.18.18.168.164.344v.855l-.164.344-.18.164-.328.18h-1.035l-.348-.18-.164-.164M378.562 144.262h2.747M382.672 145.641l1.89-2.399M382.672 143.242l1.89 2.399M385.926 145.641v-3.598h1.383l.343.164.164.18.18.347v.508l-.18.344-.164.168-.343.18h-1.383M335.691 122.676h2.747M337.074 124.043v-2.746M339.816 120.441h2.223l-1.203 1.383h.512l.343.164.18.164.168.344v.856l-.168.347-.18.18-.343.164h-1.02l-.344-.164-.168-.18M343.074 120.441l1.199 3.602 1.2-3.602M347.348 120.441h.343l.348.18.164.168.18.344.164.691v.852l-.164.676-.18.347-.164.18-.348.164h-.343l-.344-.164-.168-.18-.164-.347-.18-.676v-.852l.18-.691.164-.344.168-.168.344-.18M334.328 246.594l-.344-.18h-.511l-.512.18-.344.328-.179.344-.165.691v.512l.165.687.179.348.344.344.512.164h.343l.512-.164.164-.18v-1.199h-.676M336.039 250.012v-3.598l2.055 3.598v-3.598M339.816 250.012v-3.598h.856l.512.18.343.328.164.344.18.691v.512l-.18.687-.164.348-.343.344-.512.164h-.856M345.473 250.012l-1.2-1.711M343.402 250.012v-3.598h1.379l.348.18.164.164.18.344v.511l-.18.344-.164.164-.348.18h-1.379M347.004 248.121h1.199M348.727 250.012h-1.723v-3.598h1.723M351.457 248.121h-1.184M350.273 250.012v-3.598h1.711M422.078 137.062h2.746M423.441 138.441v-2.742M426.188 134.844h2.234l-1.199 1.363h.511l.344.18.164.164.18.347v.856l-.18.344-.164.164-.344.179h-1.035l-.332-.179-.179-.164M429.441 134.844l1.2 3.597 1.203-3.597M433.734 134.844h.344l.344.164.164.18.168.343.18.676v.855l-.18.692-.168.344-.164.164-.344.179h-.344l-.347-.179-.164-.164-.18-.344-.164-.692v-.855l.164-.676.18-.343.164-.18.347-.164M438.668 170.828h-2.055M437.648 170.828v-3.601l-.347.527-.344.344-.344.164M440.211 170.828v-3.601M440.559 169.461l1.035 1.367M441.594 168.426l-1.383 1.383M446.242 174.262l.512.164h.855l.344-.164.18-.18.164-.328v-.348l-.164-.344-.18-.179-.344-.164-.675-.168-.348-.18-.18-.164-.164-.344v-.347l.164-.344.18-.164.348-.18h.855l.508.18M449.496 170.828l.856 3.598.691-2.563.691 2.563.852-3.598M453.098 174.773h2.746M456.699 174.426v-3.598h1.363l.344.18.18.164.168.344v.511l-.168.344-.18.18-.344.168h-1.363M461.844 172.027v2.399M460.297 172.027v1.891l.164.344.348.164h.507l.348-.164.18-.18M463.387 174.262l.332.164h.687l.348-.164.164-.344v-.164l-.164-.348-.348-.179h-.508l-.347-.165-.164-.343v-.168l.164-.344.347-.18h.508l.348.18M466.461 174.426v-3.598M468.008 174.426v-1.875l-.164-.344-.348-.18h-.523l-.332.18-.18.164M204.727 203.227h-2.055M203.707 203.227v-3.598l-.344.508-.347.347-.344.164M206.273 203.227v-3.598M206.617 201.848l1.02 1.379M207.637 200.828l-1.364 1.363M207.129 177.922h.344l.343.164.168.18.18.347.164.676v.867l-.164.676-.18.344-.168.183-.343.164h-.344l-.348-.164-.164-.183-.179-.344-.165-.676v-.867l.165-.676.179-.347.164-.18.348-.164M209.871 180.156h2.746M214.164 178.266l.164-.18.344-.164h.855l.344.164.168.18.18.347v.344l-.18.512-2.055 2.054h2.235M218.438 177.922h.343l.348.164.164.18.18.347.164.676v.867l-.164.676-.18.344-.164.183-.348.164h-.343l-.344-.164-.168-.183-.164-.344-.18-.676v-.867l.18-.676.164-.347.168-.18.344-.164M221.184 181.523v-3.601M221.527 180.156l1.02 1.367M222.547 179.121l-1.363 1.367M289.059 210.773l.164-.179.343-.168h.856l.344.168.168.179.179.329v.347l-.179.524-2.055 2.054h2.234M292.477 210.773l.179-.179.332-.168h.871l.329.168.179.179.164.329v.347l-.164.524-2.055 2.054h2.219M296.766 210.426h.347l.344.168.164.179.168.329.18.691v.855l-.18.688-.168.348-.164.164-.344.179h-.347l-.344-.179-.164-.164-.18-.348-.164-.688v-.855l.164-.691.18-.329.164-.179.344-.168M478.297 214.191l-.344-.164h-.527l-.508.164-.344.348-.168.344-.179.691v.508l.179.676.168.344.344.347.508.18h.347l.524-.18.164-.168v-1.199h-.688M480.008 217.629v-3.602l2.054 3.602v-3.602M483.773 217.629v-3.602h.856l.523.164.332.348.18.344.164.691v.508l-.164.676-.18.344-.332.347-.523.18h-.856M489.426 217.629l-1.199-1.727M487.371 217.629v-3.602h1.383l.328.164.18.18.164.332v.524l-.164.347-.18.164-.328.164h-1.383M490.973 215.738h1.199M492.684 217.629h-1.711v-3.602h1.711M495.426 215.738h-1.199M494.227 217.629v-3.602h1.711M188.137 115.477h2.746M189.504 116.844v-2.746M192.246 113.242h2.223l-1.203 1.379h.527l.344.168.164.18.168.328v.871l-.168.328-.164.18-.344.168h-1.035l-.344-.168-.168-.18M195.504 113.242l1.199 3.602 1.199-3.602M199.793 113.242h.344l.332.18.179.164.164.348.18.687v.856l-.18.691-.164.328-.179.18-.332.168h-.344l-.344-.168-.183-.18-.164-.328-.164-.691v-.856l.164-.687.164-.348.183-.164.344-.18M134.152 86.676h2.731M135.516 88.059v-2.747M138.262 84.457h2.222l-1.203 1.367h.528l.328.18.179.164.168.344v.855l-.168.344-.179.168-.328.18h-1.036l-.347-.18-.164-.168M141.516 84.457l1.203 3.602 1.199-3.602M145.809 84.457h.328l.347.164.18.18.164.332.18.691v.852l-.18.691-.164.344-.18.168-.347.18h-.328l-.348-.18-.18-.168-.164-.344-.179-.691v-.852l.179-.691.164-.332.18-.18.348-.164M96.203 97.793l-.164.164-.512.18h-.343l-.512-.18-.344-.344-.18-.347-.164-.672v-.528l.164-.675.18-.344.344-.344.512-.164h.343l.512.164.164.164M98.258 98.137l-.332-.18-.18-.164-.164-.344v-1.035l.164-.348.18-.164.332-.164h.523l.348.164.164.164.164.348v1.035l-.164.344-.164.164-.348.18h-.523M101.004 95.738v2.399M101.004 96.066l.18-.164.343-.164h.512l.344.164.164.344v1.891M104.258 95.738v2.399M104.258 96.066l.18-.164.343-.164h.512l.344.164.164.344v1.891M106.656 98.469h2.746M110.949 94.539h.344l.344.164.164.164.168.344.179.691v.856l-.179.691-.168.344-.164.164-.344.18h-.344l-.347-.18-.164-.164-.18-.344-.164-.691v-.856l.164-.691.18-.344.164-.164.347-.164M115.566 98.137h-2.054M114.547 98.137v-3.598l-.344.508-.344.344-.347.168M116.766 98.137l1.89-2.399M116.766 95.738l1.89 2.399M120.711 94.539h.348l.343.164.164.164.18.344.168.691v.856l-.168.691-.18.344-.164.164-.343.18h-.348l-.344-.18-.164-.164-.18-.344-.164-.691v-.856l.164-.691.18-.344.164-.164.344-.164M123.293 94.867l.164-.164.344-.164h.855l.348.164.164.164.18.344v.348l-.18.507-2.055 2.071h2.235M190.359 430.148l-.347-.179h-.508l-.512.179-.344.329-.164.347-.183.688v.511l.183.688.164.348.344.343.512.164h.344l.511-.164.18-.179v-1.2h-.691M192.082 433.566v-3.597l2.055 3.597v-3.597M195.848 433.566v-3.597h.855l.508.179.348.329.179.347.164.688v.511l-.164.688-.179.348-.348.343-.508.164h-.855M201.504 433.566l-1.203-1.707M199.449 433.566v-3.597h1.363l.344.179.168.164.18.344v.512l-.18.344-.168.164-.344.183h-1.363M203.047 431.676h1.199M204.758 433.566h-1.711v-3.597h1.711M207.504 431.676h-1.203M206.301 433.566v-3.597h1.711M129.324 386.438l-.183.164-.508.179h-.344l-.512-.179-.343-.329-.168-.347-.18-.688v-.511l.18-.688.168-.348.343-.343.512-.164h.344l.508.164.183.179M131.379 386.781l-.348-.179-.164-.164-.179-.344v-1.02l.179-.347.164-.18.348-.164h.508l.347.164.164.18.18.347v1.02l-.18.344-.164.164-.347.179h-.508M134.121 384.383v2.398M134.121 384.727l.168-.18.344-.164h.508l.347.164.18.344v1.89M137.379 384.383v2.398M137.379 384.727l.164-.18.344-.164h.511l.344.164.18.344v1.89M139.777 387.129h2.746M144.051 383.184h.347l.344.164.18.179.164.344.168.676v.855l-.168.692-.164.344-.18.164-.344.179h-.347l-.328-.179-.18-.164-.164-.344-.18-.692v-.855l.18-.676.164-.344.18-.179.328-.164M148.688 386.781h-2.055M147.652 386.781v-3.597l-.343.507-.332.348-.344.164M149.887 386.781l1.89-2.398M149.887 384.383l1.89 2.398M153.832 383.184h.344l.332.164.18.179.164.344.179.676v.855l-.179.692-.164.344-.18.164-.332.179h-.344l-.344-.179-.179-.164-.168-.344-.164-.692v-.855l.164-.676.168-.344.179-.179.344-.164M156.742 386.781h.692l.328-.179.179-.164.348-.512.164-.688v-1.367l-.164-.344-.18-.179-.347-.164h-.676l-.344.164-.18.179-.164.344v.856l.164.347.18.164.344.164h.676l.347-.164.18-.164.164-.347M89.586 430.148l-.344-.179h-.508l-.527.179-.328.329-.18.347-.168.688v.511l.168.688.18.348.328.343.527.164h.344l.508-.164.168-.179v-1.2h-.676M91.297 433.566v-3.597l2.055 3.597v-3.597M95.062 433.566v-3.597h.872l.507.179.348.329.164.347.18.688v.511l-.18.688-.164.348-.348.343-.507.164h-.872M100.734 433.566l-1.203-1.707M98.664 433.566v-3.597h1.379l.344.179.164.164.183.344v.512l-.183.344-.164.164-.344.183h-1.379M102.262 431.676h1.199M103.988 433.566h-1.726v-3.597h1.726M106.719 431.676h-1.203M105.516 433.566v-3.597h1.726M197.707 508.809l-.18.164-.511.179h-.344l-.508-.179-.348-.332-.164-.344-.179-.688v-.511l.179-.692.164-.344.348-.343.508-.168h.344l.511.168.18.179M199.762 509.152l-.344-.179-.164-.164-.18-.348v-1.02l.18-.343.164-.18.344-.164h.511l.344.164.164.18.18.343v1.02l-.18.348-.164.164-.344.179h-.511M202.508 506.754v2.398M202.508 507.098l.164-.18.344-.164h.511l.344.164.168.344v1.89M205.762 506.754v2.398M205.762 507.098l.164-.18.347-.164h.508l.348.164.18.344v1.89M208.164 509.496h2.727M212.438 505.551h.343l.348.168.164.179.18.344.164.676v.855l-.164.688-.18.348-.164.164-.348.179h-.343l-.344-.179-.168-.164-.164-.348-.18-.688v-.855l.18-.676.164-.344.168-.179.344-.168M217.074 509.152h-2.058M216.039 509.152v-3.601l-.348.511-.328.344-.347.18M218.273 509.152l1.875-2.398M218.273 506.754l1.875 2.398M222.219 505.551h.328l.344.168.183.179.164.344.18.676v.855l-.18.688-.164.348-.183.164-.344.179h-.328l-.348-.179-.18-.164-.164-.348-.179-.688v-.855l.179-.676.164-.344.18-.179.348-.168M224.781 505.898l.168-.179.344-.168h.855l.344.168.18.179.164.344v.344l-.164.512-2.055 2.054h2.219M154.371 530.918l-.344-.164h-.511l-.524.164-.328.344-.18.347-.168.672v.528l.168.675.18.344.328.344.524.18h.347l.508-.18.168-.164v-1.199h-.676M156.082 534.352v-3.598l2.055 3.598v-3.598M159.848 534.352v-3.598h.871l.508.164.347.344.164.347.18.672v.528l-.18.675-.164.344-.347.344-.508.18h-.871M165.516 534.352l-1.2-1.723M163.449 534.352v-3.598h1.379l.344.164.164.164.18.344v.527l-.18.328-.164.18-.344.168h-1.379M167.047 532.461h1.199M168.773 534.352h-1.726v-3.598h1.726M171.504 532.461h-1.203M170.301 534.352v-3.598h1.726M101.242 163.297l-.164.164-.512.168h-.343l-.524-.168-.332-.344-.179-.344-.165-.675v-.524l.165-.676.179-.347.332-.344.524-.164h.343l.512.164.164.164M103.297 163.629l-.328-.168-.18-.164-.168-.344v-1.035l.168-.344.18-.168.328-.164h.527l.328.164.18.168.164.344v1.035l-.164.344-.18.164-.328.168h-.527M106.043 161.242v2.387M106.043 161.574l.18-.168.328-.164h.527l.344.164.164.348v1.875M109.297 161.242v2.387M109.297 161.574l.18-.168.347-.164h.508l.344.164.168.348v1.875M111.699 163.973h2.742M115.988 160.043h.344l.344.164.168.164.164.348.18.687v.856l-.18.691-.164.344-.168.164-.344.168h-.344l-.347-.168-.164-.164-.18-.344-.164-.691v-.856l.164-.687.18-.348.164-.164.347-.164M120.609 163.629h-2.058M119.586 163.629v-3.586l-.344.508-.344.347-.347.164M121.809 163.629l1.89-2.387M121.809 161.242l1.89 2.387M125.754 160.043h.344l.343.164.168.164.18.348.164.687v.856l-.164.691-.18.344-.168.164-.343.168h-.344l-.348-.168-.164-.164-.18-.344-.164-.691v-.856l.164-.687.18-.348.164-.164.348-.164M128.152 160.043h2.235l-1.199 1.363h.511l.344.168.164.18.18.344v.855l-.18.344-.164.164-.344.168h-1.035l-.348-.168-.164-.164M233.691 386.438l-.164.164-.523.179h-.332l-.524-.179-.347-.329-.164-.347-.164-.688v-.511l.164-.688.164-.348.347-.343.524-.164h.332l.523.164.164.179M235.746 386.781l-.344-.179-.164-.164-.164-.344v-1.02l.164-.347.164-.18.344-.164h.527l.329.164.179.18.168.347v1.02l-.168.344-.179.164-.329.179h-.527M238.492 384.383v2.398M238.492 384.727l.164-.18.348-.164h.523l.332.164.18.344v1.89M241.746 384.383v2.398M241.746 384.727l.18-.18.332-.164h.523l.348.164.164.344v1.89M244.148 387.129h2.743M248.438 383.184h.343l.332.164.18.179.164.344.18.676v.855l-.18.692-.164.344-.18.164-.332.179h-.343l-.344-.179-.18-.164-.168-.344-.164-.692v-.855l.164-.676.168-.344.18-.179.344-.164M253.059 386.781h-2.055M252.039 386.781v-3.597l-.348.507-.343.348-.344.164M254.258 386.781l1.89-2.398M254.258 384.383l1.89 2.398M258.203 383.184h.344l.344.164.168.179.179.344.164.676v.855l-.164.692-.179.344-.168.164-.344.179h-.344l-.344-.179-.168-.164-.179-.344-.164-.692v-.855l.164-.676.179-.344.168-.179.344-.164M261.113 386.781h.688l.347-.179.164-.164.344-.512.168-.688v-1.367l-.168-.344-.164-.179-.344-.164h-.691l-.344.164-.164.179-.183.344v.856l.183.347.164.164.344.164h.691l.344-.164.164-.164.168-.347M417.246 163.629l-1.199-1.711M415.191 163.629v-3.586h1.368l.343.164.18.164.164.348v.523l-.164.332-.18.18-.343.164h-1.368M420.336 160.043h-.688l-.347.164-.164.164-.344.527-.164.676v1.379l.164.344.164.164.344.168h.691l.344-.168.168-.164.18-.344v-.855l-.18-.344-.168-.18-.344-.168h-.691l-.344.168-.164.18-.164.344M204.906 145.641l-1.199-1.707M202.836 145.641v-3.598h1.383l.343.164.165.18.179.347v.508l-.179.344-.165.168-.343.18h-1.383M207.984 143.242v2.399M207.129 141.863l-.856 2.578h2.235M300.488 237.531h-3.601v-.855l.179-.524.348-.328.328-.183.692-.164h.507l.692.164.344.183.347.328.164.524v.855M300.488 232.043v2.055M300.488 233.078h-3.601l.527.344.328.344.18.332M349.434 134.844v2.91l.164.344.179.164.332.179h.688l.344-.179.168-.164.179-.344v-2.91M355.086 138.441h-2.055M354.051 138.441v-3.597l-.344.508-.328.347-.348.18M438.848 163.629l-1.2-1.711M436.793 163.629v-3.586h1.363l.348.164.164.164.18.348v.508l-.18.347-.164.18-.348.164h-1.363M442.102 160.043h-1.711l-.18 1.711.18-.18.332-.168h.871l.328.168.18.18.164.344v.855l-.164.344-.18.164-.328.168h-.871l-.332-.168-.18-.164M452.406 167.062l.528.165h.855l.344-.165.164-.164.164-.347v-.344l-.164-.344-.164-.164-.344-.183-.691-.164-.344-.18-.168-.164-.18-.344v-.348l.18-.343.168-.164.344-.18h.855l.508.18M455.664 163.629l.867 3.598.676-2.563.691 2.563.856-3.598M462.008 167.227h-2.055M460.988 167.227v-3.598l-.347.523-.344.344-.344.168M204.906 196.027l-1.199-1.711M202.836 196.027v-3.601h1.383l.343.168.165.179.179.344v.512l-.179.344-.165.164-.343.179h-1.383M208.328 196.027h-2.055M207.309 196.027v-3.601l-.348.512-.344.343-.344.18M208.508 174.324l-1.199-1.711M206.438 174.324v-3.601h1.378l.348.179.164.164.18.348v.508l-.18.344-.164.168-.348.179h-1.378M209.871 171.066l.168-.164.344-.179h.855l.344.179.18.164.164.348v.344l-.164.508-2.055 2.058h2.219M291.277 206.828l-1.199-1.711M289.223 206.828v-3.601h1.363l.348.164.179.183.164.344v.508l-.164.347-.179.165-.348.179h-1.363M292.477 203.227h2.234l-1.199 1.367h.511l.344.179.164.165.18.343v.856l-.18.347-.164.164-.344.18h-1.035l-.332-.18-.179-.164M95.184 87.336v2.566l-.18.512-.332.344-.524.18h-.347M98.781 90.938h-2.054M97.746 90.938v-3.602l-.344.512-.343.343-.332.168M128.289 375.984v2.563l-.168.527-.344.344-.511.164h-.344M131.887 379.582h-2.055M130.867 379.582v-3.598l-.344.508-.347.344-.344.18M196.672 498.352v2.566l-.164.523-.344.348-.512.164h-.343M198.051 498.352h2.222l-1.199 1.367h.508l.344.179.183.164.164.344v.856l-.164.347-.183.18-.344.164h-1.02l-.343-.164-.168-.18M100.223 152.844v2.562l-.18.512-.344.344-.511.179h-.344M101.766 153.188l.168-.18.343-.164h.856l.344.164.164.18.183.328v.347l-.183.508-2.055 2.07h2.238M232.672 375.984v2.563l-.18.527-.344.344-.511.164h-.344M234.203 376.328l.18-.18.344-.164h.855l.344.164.168.18.179.344v.344l-.179.511-2.055 2.055h2.234"/><path stroke-width=".15" stroke-linecap="round" stroke-linejoin="round" fill="none" stroke="#4d4d4d" d="M105.578 352.738a1.09 1.09 0 0 1-1.09 1.09 1.09 1.09 0 0 1-1.086-1.09 1.09 1.09 0 0 1 1.086-1.086c.602 0 1.09.489 1.09 1.086zM105.578 359.941a1.09 1.09 0 0 1-2.176 0 1.09 1.09 0 0 1 1.086-1.089c.602 0 1.09.488 1.09 1.089zM105.578 367.141a1.087 1.087 0 1 1-2.174-.002 1.087 1.087 0 0 1 2.174.002zM105.578 374.34a1.087 1.087 0 1 1-2.174-.002 1.087 1.087 0 0 1 2.174.002zM105.578 381.523a1.09 1.09 0 0 1-1.09 1.09 1.089 1.089 0 1 1 1.09-1.09zM105.578 388.727a1.089 1.089 0 0 1-2.176 0c0-.602.489-1.09 1.086-1.09.602 0 1.09.488 1.09 1.09zM105.578 395.926a1.087 1.087 0 1 1-2.174-.002 1.087 1.087 0 0 1 2.174.002zM209.949 352.738a1.087 1.087 0 1 1-2.178.006 1.087 1.087 0 0 1 2.178-.006zM209.949 359.941a1.09 1.09 0 0 1-2.176 0 1.087 1.087 0 1 1 2.176 0zM209.949 367.141a1.087 1.087 0 0 1-2.176 0 1.087 1.087 0 1 1 2.176 0zM209.949 374.34a1.087 1.087 0 1 1-2.174-.002 1.087 1.087 0 0 1 2.174.002zM209.949 395.926a1.087 1.087 0 0 1-2.176 0 1.087 1.087 0 1 1 2.176 0zM209.949 403.125c0 .602-.488 1.086-1.09 1.086a1.084 1.084 0 0 1-1.086-1.086c0-.602.485-1.086 1.086-1.086.602 0 1.09.484 1.09 1.086zm0 0"/></svg>